<mxfile host="app.diagrams.net" modified="2023-12-10T04:34:30.354Z" agent="Mozilla/5.0 (X11; Linux x86_64) AppleWebKit/537.36 (KHTML, like Gecko) Chrome/119.0.0.0 Safari/537.36" etag="-Rje0HqwFXpmyvObuQsc" version="22.1.7" type="github">
  <diagram id="R2lEEEUBdFMjLlhIrx00" name="Page-1">
    <mxGraphModel dx="1434" dy="759" grid="1" gridSize="10" guides="1" tooltips="1" connect="1" arrows="1" fold="1" page="1" pageScale="1" pageWidth="850" pageHeight="1100" math="0" shadow="0" extFonts="Permanent Marker^https://fonts.googleapis.com/css?family=Permanent+Marker">
      <root>
        <mxCell id="0" />
        <mxCell id="1" parent="0" />
        <mxCell id="vEV78vqfi2SY-njEmPT2-28" value="" style="group" vertex="1" connectable="0" parent="1">
          <mxGeometry x="190" y="370" width="140" height="150" as="geometry" />
        </mxCell>
        <mxCell id="vEV78vqfi2SY-njEmPT2-10" value="Recursos" style="swimlane;fontStyle=0;childLayout=stackLayout;horizontal=1;startSize=30;horizontalStack=0;resizeParent=1;resizeParentMax=0;resizeLast=0;collapsible=1;marginBottom=0;whiteSpace=wrap;html=1;" vertex="1" parent="vEV78vqfi2SY-njEmPT2-28">
          <mxGeometry width="140" height="120" as="geometry" />
        </mxCell>
        <mxCell id="vEV78vqfi2SY-njEmPT2-11" value="identificador" style="text;strokeColor=none;fillColor=none;align=left;verticalAlign=middle;spacingLeft=4;spacingRight=4;overflow=hidden;points=[[0,0.5],[1,0.5]];portConstraint=eastwest;rotatable=0;whiteSpace=wrap;html=1;" vertex="1" parent="vEV78vqfi2SY-njEmPT2-10">
          <mxGeometry y="30" width="140" height="30" as="geometry" />
        </mxCell>
        <mxCell id="vEV78vqfi2SY-njEmPT2-12" value="nombre&lt;span style=&quot;white-space: pre;&quot;&gt;&#x9;&lt;/span&gt;" style="text;strokeColor=none;fillColor=none;align=left;verticalAlign=middle;spacingLeft=4;spacingRight=4;overflow=hidden;points=[[0,0.5],[1,0.5]];portConstraint=eastwest;rotatable=0;whiteSpace=wrap;html=1;" vertex="1" parent="vEV78vqfi2SY-njEmPT2-10">
          <mxGeometry y="60" width="140" height="30" as="geometry" />
        </mxCell>
        <mxCell id="vEV78vqfi2SY-njEmPT2-13" value="tipo" style="text;strokeColor=none;fillColor=none;align=left;verticalAlign=middle;spacingLeft=4;spacingRight=4;overflow=hidden;points=[[0,0.5],[1,0.5]];portConstraint=eastwest;rotatable=0;whiteSpace=wrap;html=1;" vertex="1" parent="vEV78vqfi2SY-njEmPT2-10">
          <mxGeometry y="90" width="140" height="30" as="geometry" />
        </mxCell>
        <mxCell id="vEV78vqfi2SY-njEmPT2-20" value="descripcion" style="text;strokeColor=#666666;fillColor=#f5f5f5;align=left;verticalAlign=middle;spacingLeft=4;spacingRight=4;overflow=hidden;points=[[0,0.5],[1,0.5]];portConstraint=eastwest;rotatable=0;whiteSpace=wrap;html=1;fontColor=#333333;" vertex="1" parent="vEV78vqfi2SY-njEmPT2-28">
          <mxGeometry y="120" width="140" height="30" as="geometry" />
        </mxCell>
        <mxCell id="vEV78vqfi2SY-njEmPT2-36" value="" style="group" vertex="1" connectable="0" parent="1">
          <mxGeometry x="10" y="50" width="520" height="240" as="geometry" />
        </mxCell>
        <mxCell id="vEV78vqfi2SY-njEmPT2-2" value="Investigadores" style="swimlane;fontStyle=0;childLayout=stackLayout;horizontal=1;startSize=30;horizontalStack=0;resizeParent=1;resizeParentMax=0;resizeLast=0;collapsible=1;marginBottom=0;whiteSpace=wrap;html=1;" vertex="1" parent="vEV78vqfi2SY-njEmPT2-36">
          <mxGeometry x="10" y="40" width="140" height="120" as="geometry" />
        </mxCell>
        <mxCell id="vEV78vqfi2SY-njEmPT2-3" value="nombre" style="text;strokeColor=none;fillColor=none;align=left;verticalAlign=middle;spacingLeft=4;spacingRight=4;overflow=hidden;points=[[0,0.5],[1,0.5]];portConstraint=eastwest;rotatable=0;whiteSpace=wrap;html=1;" vertex="1" parent="vEV78vqfi2SY-njEmPT2-2">
          <mxGeometry y="30" width="140" height="30" as="geometry" />
        </mxCell>
        <mxCell id="vEV78vqfi2SY-njEmPT2-4" value="identificador" style="text;strokeColor=none;fillColor=none;align=left;verticalAlign=middle;spacingLeft=4;spacingRight=4;overflow=hidden;points=[[0,0.5],[1,0.5]];portConstraint=eastwest;rotatable=0;whiteSpace=wrap;html=1;" vertex="1" parent="vEV78vqfi2SY-njEmPT2-2">
          <mxGeometry y="60" width="140" height="30" as="geometry" />
        </mxCell>
        <mxCell id="vEV78vqfi2SY-njEmPT2-5" value="grado cientifico" style="text;strokeColor=none;fillColor=none;align=left;verticalAlign=middle;spacingLeft=4;spacingRight=4;overflow=hidden;points=[[0,0.5],[1,0.5]];portConstraint=eastwest;rotatable=0;whiteSpace=wrap;html=1;" vertex="1" parent="vEV78vqfi2SY-njEmPT2-2">
          <mxGeometry y="90" width="140" height="30" as="geometry" />
        </mxCell>
        <mxCell id="vEV78vqfi2SY-njEmPT2-6" value="Proyectos" style="swimlane;fontStyle=0;childLayout=stackLayout;horizontal=1;startSize=30;horizontalStack=0;resizeParent=1;resizeParentMax=0;resizeLast=0;collapsible=1;marginBottom=0;whiteSpace=wrap;html=1;" vertex="1" parent="vEV78vqfi2SY-njEmPT2-36">
          <mxGeometry x="360" y="40" width="140" height="120" as="geometry" />
        </mxCell>
        <mxCell id="vEV78vqfi2SY-njEmPT2-7" value="identificador&lt;span style=&quot;white-space: pre;&quot;&gt;&#x9;&lt;/span&gt;" style="text;strokeColor=none;fillColor=none;align=left;verticalAlign=middle;spacingLeft=4;spacingRight=4;overflow=hidden;points=[[0,0.5],[1,0.5]];portConstraint=eastwest;rotatable=0;whiteSpace=wrap;html=1;" vertex="1" parent="vEV78vqfi2SY-njEmPT2-6">
          <mxGeometry y="30" width="140" height="30" as="geometry" />
        </mxCell>
        <mxCell id="vEV78vqfi2SY-njEmPT2-8" value="nombre" style="text;strokeColor=none;fillColor=none;align=left;verticalAlign=middle;spacingLeft=4;spacingRight=4;overflow=hidden;points=[[0,0.5],[1,0.5]];portConstraint=eastwest;rotatable=0;whiteSpace=wrap;html=1;" vertex="1" parent="vEV78vqfi2SY-njEmPT2-6">
          <mxGeometry y="60" width="140" height="30" as="geometry" />
        </mxCell>
        <mxCell id="vEV78vqfi2SY-njEmPT2-9" value="area_relevancia" style="text;strokeColor=none;fillColor=none;align=left;verticalAlign=middle;spacingLeft=4;spacingRight=4;overflow=hidden;points=[[0,0.5],[1,0.5]];portConstraint=eastwest;rotatable=0;whiteSpace=wrap;html=1;" vertex="1" parent="vEV78vqfi2SY-njEmPT2-6">
          <mxGeometry y="90" width="140" height="30" as="geometry" />
        </mxCell>
        <mxCell id="vEV78vqfi2SY-njEmPT2-30" value="" style="endArrow=classic;html=1;rounded=0;" edge="1" parent="vEV78vqfi2SY-njEmPT2-36">
          <mxGeometry relative="1" as="geometry">
            <mxPoint x="150" y="110" as="sourcePoint" />
            <mxPoint x="360" y="110" as="targetPoint" />
          </mxGeometry>
        </mxCell>
        <mxCell id="vEV78vqfi2SY-njEmPT2-31" value="Trabajar" style="edgeLabel;resizable=0;html=1;align=center;verticalAlign=middle;" connectable="0" vertex="1" parent="vEV78vqfi2SY-njEmPT2-30">
          <mxGeometry relative="1" as="geometry" />
        </mxCell>
        <mxCell id="vEV78vqfi2SY-njEmPT2-32" value="0,*" style="edgeLabel;resizable=0;html=1;align=left;verticalAlign=bottom;" connectable="0" vertex="1" parent="vEV78vqfi2SY-njEmPT2-30">
          <mxGeometry x="-1" relative="1" as="geometry" />
        </mxCell>
        <mxCell id="vEV78vqfi2SY-njEmPT2-33" value="0,*" style="edgeLabel;resizable=0;html=1;align=right;verticalAlign=bottom;" connectable="0" vertex="1" parent="vEV78vqfi2SY-njEmPT2-30">
          <mxGeometry x="1" relative="1" as="geometry" />
        </mxCell>
        <mxCell id="vEV78vqfi2SY-njEmPT2-34" value="" style="swimlane;startSize=0;" vertex="1" parent="vEV78vqfi2SY-njEmPT2-36">
          <mxGeometry width="520" height="240" as="geometry" />
        </mxCell>
        <mxCell id="vEV78vqfi2SY-njEmPT2-35" value="Investigador Vinculado" style="text;html=1;strokeColor=none;fillColor=none;align=center;verticalAlign=middle;whiteSpace=wrap;rounded=0;" vertex="1" parent="vEV78vqfi2SY-njEmPT2-34">
          <mxGeometry x="175" y="190" width="170" height="30" as="geometry" />
        </mxCell>
      </root>
    </mxGraphModel>
  </diagram>
</mxfile>
